#!OML:ASF F:\VICON\USERDATA\INSTALL\rory3\rory3.ASF
:FULLY-SPECIFIED
:DEGREES
617
root 0.0935041 18.2736 -4.53148 -1.74579 13.9645 -0.889158
lowerback 5.44724 0.40298 -1.71778
upperback 1.0656 0.410819 -1.43994
thorax -1.95879 0.213552 -0.544806
lowerneck -12.3315 -0.289211 -7.43828
upperneck 11.2453 0.0557941 6.62161
head 5.40076 0.185746 3.30858
rclavicle -2.16675e-014 1.35174e-014
rhumerus -12.7132 6.10108 -46.5852
rradius 107.111
rwrist 19.0246
rhand -32.489 15.9502
rfingers 7.12502
rthumb -5.7209 -13.9526
lclavicle -2.16675e-014 1.35174e-014
lhumerus -0.975434 -23.5332 55.4421
lradius 90.8158
lwrist -14.3222
lhand -32.2679 8.68147
lfingers 7.12502
lthumb -5.5074 38.5899
rfemur 3.40353 14.405 13.6743
rtibia 20.3468
rfoot -24.3065 -28.418
rtoes -3.50895
lfemur -10.3665 -14.3246 -4.31194
ltibia 22.0733
lfoot -10.202 2.4396
ltoes -20.9903
618
root 0.0896127 18.272 -4.52372 -1.68563 14.4357 -0.756862
lowerback 5.41541 0.408639 -1.9062
upperback 1.03991 0.407607 -1.46317
thorax -1.96853 0.21318 -0.462737
lowerneck -12.3587 -0.269383 -7.56975
upperneck 11.3233 0.0922211 6.72302
head 5.4266 0.20523 3.36689
rclavicle 4.72114e-015 6.36111e-015
rhumerus -12.5753 6.28618 -46.5499
rradius 107.013
rwrist 19.1
rhand -32.4643 17.2742
rfingers 7.12502
rthumb -5.69705 -12.6292
lclavicle 4.72114e-015 6.36111e-015
lhumerus -1.51782 -23.528 55.6769
lradius 91.1371
lwrist -14.3406
lhand -32.3046 8.80739
lfingers 7.12502
lthumb -5.54284 38.7149
rfemur 3.52895 14.2294 13.6179
rtibia 20.3649
rfoot -24.5708 -28.604
rtoes -3.4037
lfemur -10.5576 -14.5678 -4.42573
ltibia 22.0702
lfoot -10.1268 2.27837
ltoes -21.1764
619
root 0.0840692 18.271 -4.51811 -1.59065 14.8777 -0.697777
lowerback 5.46617 0.42535 -1.99526
upperback 0.923282 0.419664 -1.49215
thorax -2.11737 0.220946 -0.444613
lowerneck -12.3101 -0.231922 -7.6081
upperneck 11.4018 0.145111 6.71631
head 5.43881 0.227844 3.37603
rclavicle 8.84592e-015 -6.36111e-015
rhumerus -12.375 6.57626 -46.5427
rradius 106.897
rwrist 19.1381
rhand -32.5633 17.5371
rfingers 7.12502
rthumb -5.79264 -12.3638
lclavicle 8.84592e-015 -6.36111e-015
lhumerus -2.27113 -23.6401 55.817
lradius 91.5087
lwrist -14.3475
lhand -32.4332 8.88062
lfingers 7.12502
lthumb -5.66696 38.7848
rfemur 3.56504 14.0588 13.6286
rtibia 20.3898
rfoot -24.857 -28.8156
rtoes -3.30661
lfemur -10.7991 -14.7847 -4.42727
ltibia 22.0454
lfoot -10.0312 2.08611
ltoes -20.9467
620
root 0.0800499 18.2704 -4.51431 -1.57091 15.3659 -0.740178
lowerback 5.48283 0.413376 -1.97197
upperback 0.989467 0.406457 -1.49186
thorax -2.05833 0.213746 -0.45615
lowerneck -12.6734 -0.233342 -7.5738
upperneck 11.4859 0.175021 6.60323
head 5.5245 0.240572 3.34078
rclavicle 2.17172e-014 1.11319e-014
rhumerus -12.0307 6.70347 -46.5141
rradius 106.893
rwrist 19.3469
rhand -33.0146 17.1375
rfingers 7.12502
rthumb -6.2283 -12.751
lclavicle 2.17172e-014 1.11319e-014
lhumerus -2.79124 -23.6406 55.7241
lradius 91.7531
lwrist -14.2099
lhand -32.8019 8.73748
lfingers 7.12502
lthumb -6.02298 38.6319
rfemur 3.6632 13.8406 13.7527
rtibia 20.4
rfoot -25.0669 -29.0613
rtoes -3.15514
lfemur -11.0003 -15.0682 -4.33787
ltibia 22.0216
lfoot -9.90329 1.90557
ltoes -20.788
621
root 0.0763229 18.2707 -4.50938 -1.55129 15.9126 -0.680144
lowerback 5.45846 0.365416 -2.04711
upperback 1.21491 0.345267 -1.4969
thorax -1.81278 0.181634 -0.413459
lowerneck -13.4715 -0.265786 -7.69017
upperneck 11.6275 0.199876 6.63876
head 5.70137 0.260855 3.38227
rclavicle -3.19049e-014 -2.54444e-014
rhumerus -11.5628 6.68571 -46.445
rradius 106.92
rwrist 19.5518
rhand -33.8303 17.1858
rfingers 7.12502
rthumb -7.0158 -12.6779
lclavicle -3.19049e-014 -2.54444e-014
lhumerus -3.08644 -23.3695 55.6486
lradius 92.0108
lwrist -14.0987
lhand -33.1349 8.79231
lfingers 7.12502
lthumb -6.34442 38.6773
rfemur 3.82447 13.602 13.7879
rtibia 20.3865
rfoot -25.2744 -29.3397
rtoes -2.91701
lfemur -11.1983 -15.3752 -4.36552
ltibia 22.0023
lfoot -9.76033 1.69766
ltoes -20.7109
622
root 0.0730864 18.2709 -4.50201 -1.53055 16.3783 -0.721523
lowerback 5.43703 0.376624 -1.99177
upperback 1.20402 0.36352 -1.51382
thorax -1.81172 0.19057 -0.463037
lowerneck -13.4498 -0.259365 -7.62715
upperneck 11.583 0.208664 6.55044
head 5.68344 0.261219 3.34337
rclavicle -1.00386e-014 -6.36111e-015
rhumerus -11.6192 6.82719 -46.4745
rradius 107.053
rwrist 19.5597
rhand -33.8608 16.8651
rfingers 7.12502
rthumb -7.04521 -12.9977
lclavicle -1.00386e-014 -6.36111e-015
lhumerus -3.78213 -23.3456 55.7488
lradius 92.3487
lwrist -14.1547
lhand -33.0667 8.87367
lfingers 7.12502
lthumb -6.27862 38.7606
rfemur 3.95119 13.4576 13.9388
rtibia 20.3366
rfoot -25.3507 -29.716
rtoes -2.8757
lfemur -11.4125 -15.579 -4.27648
ltibia 22.014
lfoot -9.68652 1.48847
ltoes -20.946
623
root 0.0681069 18.2707 -4.49302 -1.53958 16.7559 -0.86252
lowerback 5.4627 0.464785 -1.86918
upperback 0.968828 0.480576 -1.52846
thorax -2.06766 0.25025 -0.556686
lowerneck -12.6219 -0.226309 -7.35388
upperneck 11.3624 0.18492 6.30775
head 5.47761 0.23341 3.20864
rclavicle 2.01269e-014 -9.54166e-015
rhumerus -12.1725 7.15972 -46.567
rradius 107.278
rwrist 19.5648
rhand -33.2573 15.9363
rfingers 7.12502
rthumb -6.46263 -13.9451
lclavicle 2.01269e-014 -9.54166e-015
lhumerus -4.91015 -23.6362 55.9707
lradius 92.7037
lwrist -14.3466
lhand -32.9744 9.12608
lfingers 7.12502
lthumb -6.1895 39.0157
rfemur 4.07327 13.4647 14.2262
rtibia 20.289
rfoot -25.496 -30.1293
rtoes -2.85855
lfemur -11.6071 -15.7454 -4.06653
ltibia 22.047
lfoot -9.63739 1.25881
ltoes -20.6192
624
root 0.0627935 18.2703 -4.48261 -1.57192 17.0756 -1.10884
lowerback 5.45216 0.548232 -1.67441
upperback 0.859233 0.601673 -1.47485
thorax -2.17362 0.310051 -0.620159
lowerneck -12.3298 -0.194671 -7.35047
upperneck 11.3481 0.209939 6.29374
head 5.42215 0.240901 3.20313
rclavicle 1.44119e-014 -1.59028e-015
rhumerus -12.277 7.40283 -46.5543
rradius 107.344
rwrist 19.6556
rhand -33.0739 15.6217
rfingers 7.12502
rthumb -6.28554 -14.2651
lclavicle 1.44119e-014 -1.59028e-015
lhumerus -5.80391 -23.6781 56.1648
lradius 92.9943
lwrist -14.4018
lhand -33.0908 9.43906
lfingers 7.12502
lthumb -6.30186 39.3253
rfemur 4.19119 13.4855 14.6157
rtibia 20.214
rfoot -25.7173 -30.467
rtoes -2.79104
lfemur -11.8029 -15.8326 -3.74791
ltibia 22.1074
lfoot -9.65255 1.02571
ltoes -20.6527
625
root 0.061304 18.2685 -4.47383 -1.51815 17.4392 -1.2565
lowerback 5.39157 0.601828 -1.44959
upperback 0.836457 0.686731 -1.49687
thorax -2.16043 0.350724 -0.774469
lowerneck -12.4873 -0.200493 -7.51255
upperneck 11.47 0.206045 6.53405
head 5.48607 0.251023 3.30932
rclavicle 6.44062e-014 -3.4191e-014
rhumerus -12.1127 7.51031 -46.5929
rradius 107.366
rwrist 19.7044
rhand -33.1621 15.7571
rfingers 7.12502
rthumb -6.37066 -14.1271
lclavicle 6.44062e-014 -3.4191e-014
lhumerus -6.42538 -23.5428 56.1636
lradius 93.2853
lwrist -14.2882
lhand -33.0844 9.38323
lfingers 7.12502
lthumb -6.29565 39.2697
rfemur 4.25832 13.3259 14.8282
rtibia 20.1287
rfoot -25.9536 -30.6377
rtoes -2.52493
lfemur -12.0633 -15.9462 -3.53342
ltibia 22.1618
lfoot -9.68571 0.823127
ltoes -20.7274
